<svg width="234" height="255" viewBox="0 0 234 255" fill="none" xmlns="http://www.w3.org/2000/svg">
<path d="M0 0H234L198 255H35L0 0Z" fill="black"/>
<path d="M44.0682 121.636L36.5682 149.5H32.3977L39.8977 121.636H44.0682ZM67.0256 130.875H62.0483C61.9574 130.231 61.7718 129.659 61.4915 129.159C61.2112 128.652 60.8513 128.22 60.4119 127.864C59.9725 127.508 59.465 127.235 58.8892 127.045C58.321 126.856 57.7036 126.761 57.0369 126.761C55.8324 126.761 54.7831 127.061 53.8892 127.659C52.9953 128.25 52.3021 129.114 51.8097 130.25C51.3172 131.379 51.071 132.75 51.071 134.364C51.071 136.023 51.3172 137.417 51.8097 138.545C52.3097 139.674 53.0066 140.527 53.9006 141.102C54.7945 141.678 55.8286 141.966 57.0028 141.966C57.6619 141.966 58.2718 141.879 58.8324 141.705C59.4006 141.53 59.9044 141.277 60.3438 140.943C60.7831 140.602 61.1468 140.189 61.4347 139.705C61.7301 139.22 61.9347 138.667 62.0483 138.045L67.0256 138.068C66.8968 139.136 66.5748 140.167 66.0597 141.159C65.5521 142.144 64.8665 143.027 64.0028 143.807C63.1468 144.58 62.1241 145.193 60.9347 145.648C59.7528 146.095 58.4157 146.318 56.9233 146.318C54.8475 146.318 52.9915 145.848 51.3551 144.909C49.7263 143.97 48.4384 142.61 47.4915 140.83C46.5521 139.049 46.0824 136.894 46.0824 134.364C46.0824 131.826 46.5597 129.667 47.5142 127.886C48.4688 126.106 49.7642 124.75 51.4006 123.818C53.0369 122.879 54.8778 122.409 56.9233 122.409C58.2718 122.409 59.5218 122.598 60.6733 122.977C61.8324 123.356 62.8589 123.909 63.7528 124.636C64.6468 125.356 65.3741 126.239 65.9347 127.284C66.5028 128.33 66.8665 129.527 67.0256 130.875ZM70.554 146V122.727H79.7358C81.4934 122.727 82.9934 123.042 84.2358 123.67C85.4858 124.292 86.4366 125.174 87.0881 126.318C87.7472 127.455 88.0767 128.792 88.0767 130.33C88.0767 131.875 87.7434 133.205 87.0767 134.318C86.41 135.424 85.4441 136.273 84.179 136.864C82.9214 137.455 81.3987 137.75 79.6108 137.75H73.4631V133.795H78.8153C79.7547 133.795 80.535 133.667 81.1562 133.409C81.7775 133.152 82.2396 132.765 82.5426 132.25C82.8532 131.735 83.0085 131.095 83.0085 130.33C83.0085 129.557 82.8532 128.905 82.5426 128.375C82.2396 127.845 81.7737 127.443 81.1449 127.17C80.5237 126.89 79.7396 126.75 78.7926 126.75H75.4744V146H70.554ZM83.1222 135.409L88.9062 146H83.4744L77.8153 135.409H83.1222ZM91.554 146V122.727H107.236V126.784H96.4744V132.33H106.429V136.386H96.4744V141.943H107.281V146H91.554ZM115.159 146H109.886L117.92 122.727H124.261L132.284 146H127.011L121.182 128.045H121L115.159 146ZM114.83 136.852H127.284V140.693H114.83V136.852ZM131.355 126.784V122.727H150.469V126.784H143.344V146H138.48V126.784H131.355ZM173.94 134.364C173.94 136.902 173.459 139.061 172.497 140.841C171.543 142.621 170.24 143.981 168.588 144.92C166.944 145.852 165.096 146.318 163.043 146.318C160.974 146.318 159.118 145.848 157.474 144.909C155.83 143.97 154.531 142.61 153.577 140.83C152.622 139.049 152.145 136.894 152.145 134.364C152.145 131.826 152.622 129.667 153.577 127.886C154.531 126.106 155.83 124.75 157.474 123.818C159.118 122.879 160.974 122.409 163.043 122.409C165.096 122.409 166.944 122.879 168.588 123.818C170.24 124.75 171.543 126.106 172.497 127.886C173.459 129.667 173.94 131.826 173.94 134.364ZM168.952 134.364C168.952 132.72 168.705 131.333 168.213 130.205C167.728 129.076 167.043 128.22 166.156 127.636C165.27 127.053 164.232 126.761 163.043 126.761C161.853 126.761 160.815 127.053 159.929 127.636C159.043 128.22 158.353 129.076 157.861 130.205C157.376 131.333 157.134 132.72 157.134 134.364C157.134 136.008 157.376 137.394 157.861 138.523C158.353 139.652 159.043 140.508 159.929 141.091C160.815 141.674 161.853 141.966 163.043 141.966C164.232 141.966 165.27 141.674 166.156 141.091C167.043 140.508 167.728 139.652 168.213 138.523C168.705 137.394 168.952 136.008 168.952 134.364ZM177.585 146V122.727H186.767C188.525 122.727 190.025 123.042 191.267 123.67C192.517 124.292 193.468 125.174 194.119 126.318C194.778 127.455 195.108 128.792 195.108 130.33C195.108 131.875 194.775 133.205 194.108 134.318C193.441 135.424 192.475 136.273 191.21 136.864C189.953 137.455 188.43 137.75 186.642 137.75H180.494V133.795H185.847C186.786 133.795 187.566 133.667 188.188 133.409C188.809 133.152 189.271 132.765 189.574 132.25C189.884 131.735 190.04 131.095 190.04 130.33C190.04 129.557 189.884 128.905 189.574 128.375C189.271 127.845 188.805 127.443 188.176 127.17C187.555 126.89 186.771 126.75 185.824 126.75H182.506V146H177.585ZM190.153 135.409L195.938 146H190.506L184.847 135.409H190.153Z" fill="#FFA800"/>
<path d="M124.858 40.3834C134.298 46.1182 119.081 49.3236 113.203 58.9999C107.324 68.6762 114.642 87.7347 105.202 82C95.7618 76.2652 91.2434 57.1964 97.1216 47.5201C103 37.8438 115.418 34.6486 124.858 40.3834Z" fill="#822F00"/>
<path d="M132.202 49C122.749 44.1208 123.545 66.2653 118.353 76.3262C113.16 86.387 101.23 86.0029 110.684 90.8822C120.137 95.7614 132.01 91.5609 137.203 81.5001C142.396 71.4392 141.656 53.8792 132.202 49Z" fill="#822F00"/>
</svg>
